{
  "accessors": [
    {
      "bufferView": 2,
      "componentType": 5126,
      "count": 6483,
      "max": [
        1.2857400178909302,
        1.3032180070877075,
        0.7980359792709351
      ],
      "min": [
        -1.2751450538635254,
        -1.3055100440979004,
        -0.24223199486732483
      ],
      "type": "VEC3"
    },
    {
      "bufferView": 2,
      "byteOffset": 77796,
      "componentType": 5126,
      "count": 6483,
      "max": [
        0.9997702240943909,
        0.9999722242355347,
        0.9999819993972778
      ],
      "min": [
        -0.9997377991676331,
        -0.9999710321426392,
        -0.9999920129776001
      ],
      "type": "VEC3"
    },
    {
      "bufferView": 3,
      "componentType": 5126,
      "count": 6483,
      "max": [
        0.9999023079872131,
        0.9994848370552063,
        0.9999991059303284,
        1.0
      ],
      "min": [
        -0.9997884035110474,
        -0.9994621276855469,
        -0.999997615814209,
        -1.0
      ],
      "type": "VEC4"
    },
    {
      "bufferView": 1,
      "componentType": 5126,
      "count": 6483,
      "max": [
        0.9405840039253235,
        0.9999899864196777
      ],
      "min": [
        9.999999747378752e-06,
        9.999999747378752e-06
      ],
      "type": "VEC2"
    },
    {
      "bufferView": 0,
      "componentType": 5125,
      "count": 35712,
      "type": "SCALAR"
    }
  ],
  "asset": {
    "extras": {
      "author": "ddineah0 (https://sketchfab.com/ddineah0)",
      "license": "CC-BY-4.0 (http://creativecommons.org/licenses/by/4.0/)",
      "source": "https://sketchfab.com/3d-models/forest-green-sun-hat-b9ae9137f7a541e69531b36c87da27d3",
      "title": "Forest Green Sun Hat"
    },
    "generator": "Sketchfab-16.39.0",
    "version": "2.0"
  },
  "bufferViews": [
    {
      "buffer": 0,
      "byteLength": 142848,
      "name": "floatBufferViews",
      "target": 34963
    },
    {
      "buffer": 0,
      "byteLength": 51864,
      "byteOffset": 142848,
      "byteStride": 8,
      "name": "floatBufferViews",
      "target": 34962
    },
    {
      "buffer": 0,
      "byteLength": 155592,
      "byteOffset": 194712,
      "byteStride": 12,
      "name": "floatBufferViews",
      "target": 34962
    },
    {
      "buffer": 0,
      "byteLength": 103728,
      "byteOffset": 350304,
      "byteStride": 16,
      "name": "floatBufferViews",
      "target": 34962
    }
  ],
  "buffers": [
    {
      "byteLength": 454032,
      "uri": "scene.bin"
    }
  ],
  "images": [
    {
      "uri": "textures/Material_baseColor.png"
    },
    {
      "uri": "textures/Material_metallicRoughness.png"
    },
    {
      "uri": "textures/Material_normal.png"
    }
  ],
  "materials": [
    {
      "doubleSided": true,
      "name": "Material",
      "normalTexture": {
        "index": 2
      },
      "pbrMetallicRoughness": {
        "baseColorTexture": {
          "index": 0
        },
        "metallicFactor": 0.0,
        "metallicRoughnessTexture": {
          "index": 1
        }
      }
    }
  ],
  "meshes": [
    {
      "name": "Object_0",
      "primitives": [
        {
          "attributes": {
            "NORMAL": 1,
            "POSITION": 0,
            "TANGENT": 2,
            "TEXCOORD_0": 3
          },
          "indices": 4,
          "material": 0,
          "mode": 4
        }
      ]
    }
  ],
  "nodes": [
    {
      "children": [
        1
      ],
      "matrix": [
        1.0,
        0.0,
        0.0,
        0.0,
        0.0,
        2.220446049250313e-16,
        -1.0,
        0.0,
        0.0,
        1.0,
        2.220446049250313e-16,
        0.0,
        0.0,
        0.0,
        0.0,
        1.0
      ],
      "name": "Sketchfab_model"
    },
    {
      "children": [
        2
      ],
      "name": "cap1.obj.cleaner.materialmerger.gles"
    },
    {
      "mesh": 0,
      "name": "Object_2"
    }
  ],
  "samplers": [
    {
      "magFilter": 9729,
      "minFilter": 9987,
      "wrapS": 10497,
      "wrapT": 10497
    }
  ],
  "scene": 0,
  "scenes": [
    {
      "name": "Sketchfab_Scene",
      "nodes": [
        0
      ]
    }
  ],
  "textures": [
    {
      "sampler": 0,
      "source": 0
    },
    {
      "sampler": 0,
      "source": 1
    },
    {
      "sampler": 0,
      "source": 2
    }
  ]
}
