{
  "accessors": [
    {
      "bufferView": 2,
      "componentType": 5126,
      "count": 6428,
      "max": [
        9.164935111999512,
        186.21153259277344,
        16.244972229003906
      ],
      "min": [
        -9.164935111999512,
        182.16954040527344,
        14.79862117767334
      ],
      "type": "VEC3"
    },
    {
      "bufferView": 2,
      "byteOffset": 77136,
      "componentType": 5126,
      "count": 6428,
      "max": [
        1.0,
        0.9998310804367065,
        0.9999933838844299
      ],
      "min": [
        -1.0,
        -1.0,
        -0.9996978640556335
      ],
      "type": "VEC3"
    },
    {
      "bufferView": 3,
      "componentType": 5126,
      "count": 6428,
      "max": [
        1.0,
        0.9996198415756226,
        0.99979168176651,
        1.0
      ],
      "min": [
        -1.0,
        -0.9996234178543091,
        -0.9999420642852783,
        -1.0
      ],
      "type": "VEC4"
    },
    {
      "bufferView": 1,
      "componentType": 5126,
      "count": 6428,
      "max": [
        0.9934465885162354,
        0.989213228225708
      ],
      "min": [
        0.009382324293255806,
        0.03185401111841202
      ],
      "type": "VEC2"
    },
    {
      "bufferView": 1,
      "byteOffset": 51424,
      "componentType": 5126,
      "count": 6428,
      "max": [
        0.9934465885162354,
        0.989213228225708
      ],
      "min": [
        0.009382324293255806,
        0.03185401111841202
      ],
      "type": "VEC2"
    },
    {
      "bufferView": 0,
      "componentType": 5125,
      "count": 23868,
      "type": "SCALAR"
    },
    {
      "bufferView": 2,
      "byteOffset": 154272,
      "componentType": 5126,
      "count": 596,
      "max": [
        9.315826416015625,
        2.2286834716796875,
        0.48890239000320435
      ],
      "min": [
        8.914229393005371,
        0.4616393744945526,
        -12.76744270324707
      ],
      "type": "VEC3"
    },
    {
      "bufferView": 2,
      "byteOffset": 161424,
      "componentType": 5126,
      "count": 596,
      "max": [
        1.0,
        0.9971839189529419,
        0.9992130994796753
      ],
      "min": [
        -1.0,
        -0.9971742033958435,
        -0.9990250468254089
      ],
      "type": "VEC3"
    },
    {
      "bufferView": 3,
      "byteOffset": 102848,
      "componentType": 5126,
      "count": 596,
      "max": [
        0.9999926686286926,
        0.9946234822273254,
        0.9999969601631165,
        1.0
      ],
      "min": [
        -1.0,
        -0.9968159794807434,
        -0.9996640682220459,
        -1.0
      ],
      "type": "VEC4"
    },
    {
      "bufferView": 1,
      "byteOffset": 102848,
      "componentType": 5126,
      "count": 596,
      "max": [
        0.622914731502533,
        0.9554420113563538
      ],
      "min": [
        0.017610745504498482,
        0.06345616281032562
      ],
      "type": "VEC2"
    },
    {
      "bufferView": 1,
      "byteOffset": 107616,
      "componentType": 5126,
      "count": 596,
      "max": [
        0.622914731502533,
        0.9554420113563538
      ],
      "min": [
        0.017610745504498482,
        0.06345616281032562
      ],
      "type": "VEC2"
    },
    {
      "bufferView": 0,
      "byteOffset": 95472,
      "componentType": 5125,
      "count": 2244,
      "type": "SCALAR"
    },
    {
      "bufferView": 2,
      "byteOffset": 168576,
      "componentType": 5126,
      "count": 596,
      "max": [
        -8.914229393005371,
        2.2286834716796875,
        0.48890239000320435
      ],
      "min": [
        -9.315826416015625,
        0.4616393744945526,
        -12.767438888549805
      ],
      "type": "VEC3"
    },
    {
      "bufferView": 2,
      "byteOffset": 175728,
      "componentType": 5126,
      "count": 596,
      "max": [
        1.0,
        0.9971837997436523,
        0.9992122650146484
      ],
      "min": [
        -1.0,
        -0.9971742033958435,
        -0.9990251064300537
      ],
      "type": "VEC3"
    },
    {
      "bufferView": 3,
      "byteOffset": 112384,
      "componentType": 5126,
      "count": 596,
      "max": [
        1.0,
        0.9946264624595642,
        0.9999969601631165,
        1.0
      ],
      "min": [
        -0.9999926686286926,
        -0.9968159794807434,
        -0.9996640682220459,
        -1.0
      ],
      "type": "VEC4"
    },
    {
      "bufferView": 1,
      "byteOffset": 112384,
      "componentType": 5126,
      "count": 596,
      "max": [
        0.622914731502533,
        0.9554420113563538
      ],
      "min": [
        0.012251632288098335,
        0.06345616281032562
      ],
      "type": "VEC2"
    },
    {
      "bufferView": 1,
      "byteOffset": 117152,
      "componentType": 5126,
      "count": 596,
      "max": [
        0.622914731502533,
        0.9554420113563538
      ],
      "min": [
        0.012251632288098335,
        0.06345616281032562
      ],
      "type": "VEC2"
    },
    {
      "bufferView": 0,
      "byteOffset": 104448,
      "componentType": 5125,
      "count": 2244,
      "type": "SCALAR"
    }
  ],
  "asset": {
    "extras": {
      "author": "Lamis (https://sketchfab.com/LamiM)",
      "license": "CC-BY-4.0 (http://creativecommons.org/licenses/by/4.0/)",
      "source": "https://sketchfab.com/3d-models/glasses-0a51db978635499cbce9cc57c434ffdf",
      "title": "Glasses"
    },
    "generator": "Sketchfab-12.68.0",
    "version": "2.0"
  },
  "bufferViews": [
    {
      "buffer": 0,
      "byteLength": 113424,
      "name": "floatBufferViews",
      "target": 34963
    },
    {
      "buffer": 0,
      "byteLength": 121920,
      "byteOffset": 113424,
      "byteStride": 8,
      "name": "floatBufferViews",
      "target": 34962
    },
    {
      "buffer": 0,
      "byteLength": 182880,
      "byteOffset": 235344,
      "byteStride": 12,
      "name": "floatBufferViews",
      "target": 34962
    },
    {
      "buffer": 0,
      "byteLength": 121920,
      "byteOffset": 418224,
      "byteStride": 16,
      "name": "floatBufferViews",
      "target": 34962
    }
  ],
  "buffers": [
    {
      "byteLength": 540144,
      "uri": "scene.bin"
    }
  ],
  "extensionsUsed": [
    "KHR_materials_transmission"
  ],
  "images": [
    {
      "uri": "textures/Glasses_baseColor.png"
    },
    {
      "uri": "textures/Glasses_metallicRoughness.png"
    },
    {
      "uri": "textures/Glasses_normal.png"
    },
    {
      "uri": "textures/Glasses_transmission.png"
    }
  ],
  "materials": [
    {
      "alphaMode": "BLEND",
      "doubleSided": true,
      "extensions": {
        "KHR_materials_transmission": {
          "transmissionFactor": 1.0,
          "transmissionTexture": {
            "index": 3
          }
        }
      },
      "name": "Glasses",
      "normalTexture": {
        "index": 2
      },
      "occlusionTexture": {
        "index": 1
      },
      "pbrMetallicRoughness": {
        "baseColorTexture": {
          "index": 0
        },
        "metallicRoughnessTexture": {
          "index": 1
        }
      }
    }
  ],
  "meshes": [
    {
      "name": "Front_Glasses__0",
      "primitives": [
        {
          "attributes": {
            "NORMAL": 1,
            "POSITION": 0,
            "TANGENT": 2,
            "TEXCOORD_0": 3,
            "TEXCOORD_1": 4
          },
          "indices": 5,
          "material": 0,
          "mode": 4
        }
      ]
    },
    {
      "name": "L_Temple_Glasses__0",
      "primitives": [
        {
          "attributes": {
            "NORMAL": 7,
            "POSITION": 6,
            "TANGENT": 8,
            "TEXCOORD_0": 9,
            "TEXCOORD_1": 10
          },
          "indices": 11,
          "material": 0,
          "mode": 4
        }
      ]
    },
    {
      "name": "R_Temple_Glasses__0",
      "primitives": [
        {
          "attributes": {
            "NORMAL": 13,
            "POSITION": 12,
            "TANGENT": 14,
            "TEXCOORD_0": 15,
            "TEXCOORD_1": 16
          },
          "indices": 17,
          "material": 0,
          "mode": 4
        }
      ]
    }
  ],
  "nodes": [
    {
      "children": [
        1
      ],
      "matrix": [
        1.0,
        0.0,
        0.0,
        0.0,
        0.0,
        2.220446049250313e-16,
        -1.0,
        0.0,
        0.0,
        1.0,
        2.220446049250313e-16,
        0.0,
        0.0,
        0.0,
        0.0,
        1.0
      ],
      "name": "Sketchfab_model"
    },
    {
      "children": [
        2
      ],
      "matrix": [
        1.0,
        0.0,
        0.0,
        0.0,
        0.0,
        0.0,
        1.0,
        0.0,
        0.0,
        -1.0,
        0.0,
        0.0,
        0.0,
        0.0,
        0.0,
        1.0
      ],
      "name": "2f54abdc8d384322983afd4d9b367af4.fbx"
    },
    {
      "children": [
        3
      ],
      "name": "RootNode"
    },
    {
      "children": [
        4,
        6,
        8
      ],
      "matrix": [
        1.0,
        0.0,
        0.0,
        0.0,
        0.0,
        0.9964706450478437,
        0.08394196541619975,
        0.0,
        0.0,
        -0.08394196541619975,
        0.9964706450478437,
        0.0,
        0.0,
        184.1690673828125,
        14.351276397705078,
        1.0
      ],
      "name": "Glasses"
    },
    {
      "children": [
        5
      ],
      "matrix": [
        1.0,
        0.0,
        0.0,
        0.0,
        0.0,
        0.9964706450478437,
        -0.08394196541619975,
        0.0,
        0.0,
        0.08394196541619975,
        0.9964706450478437,
        0.0,
        0.0,
        -184.7237548828125,
        1.1588881015777588,
        1.0
      ],
      "name": "Front"
    },
    {
      "mesh": 0,
      "name": "Front_Glasses__0"
    },
    {
      "children": [
        7
      ],
      "matrix": [
        1.0,
        0.0,
        0.0,
        0.0,
        0.0,
        0.999997576547844,
        0.002201567268747498,
        0.0,
        0.0,
        -0.002201567268747498,
        0.999997576547844,
        0.0,
        0.0,
        0.001618737354874611,
        -0.0030184434726834297,
        1.0
      ],
      "name": "L_Temple"
    },
    {
      "mesh": 1,
      "name": "L_Temple_Glasses__0"
    },
    {
      "children": [
        9
      ],
      "matrix": [
        1.0,
        0.0,
        0.0,
        0.0,
        0.0,
        0.999997576547844,
        0.002201567268747498,
        0.0,
        0.0,
        -0.002201567268747498,
        0.999997576547844,
        0.0,
        0.0,
        0.001618737354874611,
        -0.0030184434726834297,
        1.0
      ],
      "name": "R_Temple"
    },
    {
      "mesh": 2,
      "name": "R_Temple_Glasses__0"
    }
  ],
  "samplers": [
    {
      "magFilter": 9729,
      "minFilter": 9987,
      "wrapS": 10497,
      "wrapT": 10497
    }
  ],
  "scene": 0,
  "scenes": [
    {
      "name": "Sketchfab_Scene",
      "nodes": [
        0
      ]
    }
  ],
  "textures": [
    {
      "sampler": 0,
      "source": 0
    },
    {
      "sampler": 0,
      "source": 1
    },
    {
      "sampler": 0,
      "source": 2
    },
    {
      "sampler": 0,
      "source": 3
    }
  ]
}
